<?xml version="1.0" encoding="UTF-8"?>
<svg id="Capa_1" data-name="Capa 1" xmlns="http://www.w3.org/2000/svg" viewBox="0 0 68.63 68.63">
  <defs>
    <style>
      .cls-1 {
        fill: #fff;
      }
    </style>
  </defs>
  <path class="cls-1" d="M51.47,0c9.21,1.18,15.98,7.95,17.16,17.16v34.33c0,9.13-8.59,16.07-17.18,17.14H17.26C8.03,67.61,1,60.63,0,51.36V17.31C1.03,7.91,8.04,1.16,17.14,0h34.33ZM62.53,49.67v-30.74c0-7.08-5.75-12.83-12.83-12.83h-30.79c-7.08,0-12.83,5.75-12.83,12.83v30.79c0,7.17,5.83,12.85,12.96,12.85h30.52c7.13,0,12.97-5.67,12.97-12.89Z"/>
  <path class="cls-1" d="M51.98,34.33c0,9.76-7.91,17.67-17.67,17.67s-17.67-7.91-17.67-17.67,7.91-17.67,17.67-17.67,17.67,7.91,17.67,17.67ZM45.89,34.33c0-6.4-5.19-11.59-11.59-11.59s-11.59,5.19-11.59,11.59,5.19,11.59,11.59,11.59,11.59-5.19,11.59-11.59Z"/>
  <circle class="cls-1" cx="52.74" cy="15.94" r="4.45"/>
</svg>