<?xml version="1.0" encoding="UTF-8"?>
<svg id="Capa_1" data-name="Capa 1" xmlns="http://www.w3.org/2000/svg" viewBox="0 0 68.55 68.57">
  <defs>
    <style>
      .cls-1 {
        fill: #fff;
      }
    </style>
  </defs>
  <path class="cls-1" d="M60.61,0c3.96.83,7.94,3.93,7.94,8.41v51.86c0,4.14-4.14,8.28-8.28,8.28l-51.87.02c-3.93,0-7.72-3.94-8.4-7.83V7.91c.11-.05.15-.18.18-.34C.94,3.51,4.13.79,8.05,0h52.56ZM24.72,18.72c0-3.23-2.62-5.84-5.84-5.84s-5.84,2.62-5.84,5.84,2.62,5.84,5.84,5.84,5.84-2.62,5.84-5.84ZM37.65,36.67c.92-1.67,2.56-2.38,4.35-2.27,3.21.19,4.34,3.07,4.34,5.86l.02,14.18c0,.8.61,1.35,1.38,1.35h6.57c.73,0,1.32-.59,1.32-1.34v-13.53c0-3.21-.25-6.72-1.7-9.55-1.16-2.26-3.16-3.82-5.66-4.39-2.16-.49-4.37-.48-6.54,0s-3.86,1.71-5.08,3.51c-.32-.98.45-3.43-1.39-3.43h-6.45c-.68,0-1.33.52-1.33,1.27v26.1c0,.78.6,1.35,1.33,1.35h6.43c.73,0,1.26-.61,1.27-1.33l.04-14.01c0-1.33.44-2.6,1.09-3.76ZM22.06,55.78c.81-.14,1.33-.68,1.33-1.5v-25.84c0-.81-.66-1.4-1.4-1.4h-6.17c-.86,0-1.48.64-1.48,1.53v25.71c0,.87.66,1.49,1.48,1.49h6.24Z"/>
</svg>